<svg width="184" height="35" viewBox="0 0 184 35" fill="none" xmlns="http://www.w3.org/2000/svg">
<g id="award">
<g id="Group">
<g id="Group_2">
<path id="Vector" d="M50.9763 10.3582H49.1655L47.4027 2.63932L45.5599 10.3582H43.733L41.4895 0.773926H43.124L44.7105 8.42847L46.5855 0.773926H48.3803L50.1751 8.42847L51.7936 0.773926H53.3L51.0084 10.3582H50.9763Z" fill="#D5AE38"/>
<path id="Vector_2" d="M61.9704 9.16728C61.1371 10.1 60.0474 10.5663 58.7173 10.5663C57.3872 10.5663 56.2975 10.1 55.4642 9.16728C54.6309 8.23459 54.1982 7.02852 54.1982 5.54907C54.1982 4.06962 54.6149 2.87962 55.4642 1.96301C56.2975 1.03031 57.4032 0.563965 58.7493 0.563965C60.0954 0.563965 61.1691 1.03031 61.9864 1.94693C62.8037 2.86354 63.2364 4.05354 63.2364 5.5169C63.2364 6.98027 62.8197 8.23459 61.9704 9.16728ZM60.7364 2.92787C60.1916 2.26855 59.5025 1.94693 58.6692 1.94693C57.8359 1.94693 57.1628 2.30071 56.6661 2.96003C56.1533 3.61935 55.9129 4.51988 55.9129 5.59731C55.9129 6.67473 56.1853 7.52703 56.7141 8.18635C57.259 8.82959 57.9321 9.16728 58.7654 9.16728C59.5987 9.16728 60.3999 8.79742 60.8967 8.02554C61.3454 7.36622 61.5537 6.51392 61.5537 5.48474C61.5537 4.45556 61.2492 3.58719 60.7364 2.92787Z" fill="#D5AE38"/>
<path id="Vector_3" d="M70.1605 10.3582L69.0227 7.80131C68.7342 7.15807 68.4618 6.75605 68.2054 6.59524C67.981 6.46659 67.6285 6.40227 67.0676 6.40227H66.667V10.3582H65.0324V0.773926H67.324C68.1573 0.773926 68.7503 0.806088 69.0708 0.854331C69.6477 0.950817 70.1124 1.20811 70.481 1.54581C71.0098 2.07648 71.2502 2.70364 71.2502 3.45945C71.2502 4.76201 70.4329 5.6947 69.1349 5.87159C69.4393 5.90376 69.7118 6.04849 69.9682 6.32186C70.1765 6.53091 70.4489 6.99726 70.7854 7.78523L71.9232 10.3421H70.1605V10.3582ZM69.215 2.49459C69.0227 2.30162 68.7663 2.17297 68.4458 2.12473C68.2855 2.09257 67.933 2.07648 67.4362 2.07648H66.667V5.08363H67.292C68.2054 5.08363 68.8304 4.92282 69.1509 4.58512C69.4393 4.29566 69.5836 3.94188 69.5836 3.49161C69.5836 3.04134 69.4554 2.71972 69.215 2.47851V2.49459Z" fill="#D5AE38"/>
<path id="Vector_4" d="M73.7318 10.3582V0.773926H75.3984V8.97522H79.2284V10.3582H73.7318Z" fill="#D5AE38"/>
<path id="Vector_5" d="M87.723 8.9913C87.1461 9.57022 86.4249 9.97224 85.5596 10.1491C84.9827 10.2778 84.1334 10.3582 83.0276 10.3582H80.9283V0.773926H83.3802C84.4539 0.773926 85.2551 0.838249 85.7519 0.950816C86.5211 1.12771 87.1781 1.48149 87.723 2.02824C88.6044 2.9127 89.0531 4.07053 89.0531 5.48565C89.0531 6.90078 88.6044 8.10685 87.723 8.9913ZM86.473 2.92878C86.0884 2.54283 85.6557 2.3177 85.1109 2.20513C84.7423 2.12473 84.1494 2.09257 83.3481 2.09257H82.5949V9.02347H83.7327C85.0147 9.02347 85.9442 8.70185 86.5531 8.05861C87.1301 7.44753 87.4025 6.57916 87.4025 5.43741C87.4025 4.29566 87.098 3.55593 86.489 2.92878H86.473Z" fill="#D5AE38"/>
<path id="Vector_6" d="M46.2188 13.092V21.3255H44.5522V13.092H41.844V11.7412H48.911V13.092H46.2028H46.2188Z" fill="#D5AE38"/>
<path id="Vector_7" d="M55.4163 21.3255L54.2785 18.7686C53.9901 18.1254 53.7177 17.7233 53.4613 17.5625C53.2369 17.4339 52.8844 17.3696 52.3235 17.3696H51.9228V21.3255H50.2723V11.7412H52.5639C53.3972 11.7412 53.9901 11.7734 54.3106 11.8377C54.8875 11.9342 55.3522 12.1915 55.7208 12.5292C56.2496 13.0599 56.49 13.687 56.49 14.4428C56.49 15.7454 55.6727 16.6781 54.3747 16.855C54.6792 16.8871 54.9516 17.0319 55.208 17.3052C55.4163 17.5143 55.6887 17.9967 56.0253 18.7525L57.1631 21.3094H55.4163V21.3255ZM54.4708 13.478C54.2785 13.285 54.0221 13.1563 53.7016 13.1081C53.5414 13.0759 53.1888 13.0599 52.6921 13.0599H51.9228V16.067H52.5478C53.4613 16.067 54.0862 15.9062 54.4067 15.5685C54.6952 15.279 54.8394 14.9252 54.8394 14.475C54.8394 14.0247 54.7272 13.7031 54.4708 13.4619V13.478Z" fill="#D5AE38"/>
<path id="Vector_8" d="M65.0481 21.3255L64.2949 19.0902H60.5451L59.7919 21.3255H58.1092L61.5867 11.7412H63.3014L66.7788 21.3255H65.0481ZM62.404 13.5262L60.9617 17.7877H63.8462L62.404 13.5262Z" fill="#D5AE38"/>
<path id="Vector_9" d="M71.1365 21.3255H69.4379L66.1367 11.7412H67.8354L70.3353 19.4601L72.8672 11.7412H74.4858L71.1526 21.3255H71.1365Z" fill="#D5AE38"/>
<path id="Vector_10" d="M75.9442 21.3255V11.7412H81.4729V13.092H77.5628V15.7132H81.2325V17.0319H77.5628V19.9586H81.5851V21.3416H75.9442V21.3255Z" fill="#D5AE38"/>
<path id="Vector_11" d="M83.4267 21.3255V11.7412H85.0934V19.9425H88.9394V21.3255H83.4267Z" fill="#D5AE38"/>
<path id="Vector_12" d="M47.7085 31.2946L47.0515 29.3327H43.7503L43.0933 31.2946H41.619L44.6798 22.8682H46.1861L49.2309 31.2946H47.7085ZM45.3849 24.428L44.1189 28.191H46.6508L45.3849 24.428Z" fill="#D5AE38"/>
<path id="Vector_13" d="M57.5478 31.2946H55.9453L54.3748 24.4923L52.7242 31.2946H51.1057L49.1346 22.8682H50.5769L51.971 29.59L53.6216 22.8682H55.2081L56.7946 29.59L58.2208 22.8682H59.5509L57.5638 31.2946H57.5478Z" fill="#D5AE38"/>
<path id="Vector_14" d="M65.6724 31.2946L65.0154 29.3327H61.7142L61.0572 31.2946H59.5829L62.6437 22.8682H64.15L67.2108 31.2946H65.6724ZM63.3328 24.428L62.0668 28.191H64.5987L63.3328 24.428Z" fill="#D5AE38"/>
<path id="Vector_15" d="M72.8679 31.2946L71.8583 29.0433C71.6019 28.4643 71.3615 28.1266 71.1532 27.9819C70.9609 27.8693 70.6244 27.8211 70.1436 27.8211H69.7911V31.2946H68.3488V22.8682H70.368C71.1051 22.8682 71.6179 22.9003 71.8904 22.9486C72.4032 23.0451 72.8038 23.2541 73.1243 23.5596C73.589 24.026 73.7974 24.5727 73.7974 25.2642C73.7974 26.406 73.0922 27.2261 71.9384 27.3869C72.2109 27.4191 72.4512 27.5477 72.6756 27.7889C72.8519 27.9658 73.0922 28.3839 73.3807 29.0754L74.3903 31.3268H72.8519V31.2946H72.8679ZM72.0506 24.3959C71.8904 24.235 71.65 24.1064 71.3776 24.0742C71.2333 24.0421 70.9289 24.0421 70.4962 24.0421H69.8231V26.6954H70.384C71.1853 26.6954 71.7301 26.5507 72.0346 26.2612C72.291 26.004 72.4192 25.6823 72.4192 25.2964C72.4192 24.9104 72.291 24.6049 72.0827 24.3959H72.0506Z" fill="#D5AE38"/>
<path id="Vector_16" d="M81.7118 30.1046C81.1829 30.6353 80.574 30.9569 79.8208 31.1177C79.308 31.2303 78.5709 31.2946 77.5933 31.2946H75.7504V22.8682H77.8978C78.8433 22.8682 79.5484 22.9164 79.9811 23.029C80.6541 23.1898 81.247 23.4953 81.7278 23.9778C82.497 24.7496 82.8976 25.7627 82.8976 27.0171C82.8976 28.2714 82.497 29.3006 81.7278 30.0885H81.7118V30.1046ZM80.606 24.7657C80.2695 24.428 79.8849 24.219 79.4042 24.1225C79.0837 24.0582 78.5709 24.026 77.8337 24.026H77.1767V30.1368H78.1702C79.292 30.1368 80.1093 29.8473 80.6541 29.3006C81.1669 28.7538 81.4073 27.998 81.4073 27.001C81.4073 26.004 81.1509 25.3125 80.606 24.7818V24.7657Z" fill="#D5AE38"/>
<path id="Vector_17" d="M88.4441 30.763C87.9152 31.2454 87.2262 31.4706 86.3448 31.4706C85.4634 31.4706 85.0307 31.3098 84.4378 31.0203C84.0532 30.8273 83.7968 30.6665 83.6686 30.5057L84.3256 29.4926C85.0307 29.959 85.7038 30.2002 86.2807 30.2002C87.2261 30.2002 87.771 29.7178 87.771 28.9619C87.771 28.2061 87.5787 28.2865 87.1941 28.0292C87.0819 27.9488 86.6813 27.7559 86.0243 27.4664C85.4153 27.177 84.9666 26.9357 84.7262 26.7589C84.1814 26.2925 83.909 25.7458 83.909 25.0382C83.909 24.3306 84.1654 23.7678 84.6782 23.3175C85.207 22.8673 85.848 22.6582 86.6653 22.6582C87.4826 22.6582 87.9313 22.8029 88.4761 23.0924C88.7646 23.2532 89.0049 23.3979 89.1492 23.5587L88.4761 24.4914C87.9473 24.0733 87.3864 23.8643 86.7614 23.8643C86.1364 23.8643 85.3192 24.2985 85.3192 24.9417C85.3192 25.5849 85.4474 25.4885 85.6877 25.6493C85.848 25.7779 86.2646 25.987 86.8736 26.2282C87.6428 26.5659 88.1877 26.8553 88.5082 27.1448C89.0049 27.5951 89.2293 28.1579 89.2293 28.8494C89.1972 29.6213 88.9408 30.2645 88.428 30.7309V30.763H88.4441Z" fill="#D5AE38"/>
</g>
<g id="Group_3">
<path id="Vector_18" d="M13.4771 27.0643C6.02543 27.0643 0 21.0018 0 13.5402C0 6.07861 0.0320501 12.3823 0.112176 11.8195C0.112176 11.6748 0.144226 11.5461 0.176276 11.4014C0.91343 6.64144 4.16652 2.68552 8.4933 0.964858C8.60547 0.916615 8.71765 0.884453 8.82982 0.83621C10.2881 0.289457 11.8586 0 13.5091 0C15.1597 0 14.4386 0.0321619 14.8873 0.0643238C14.9835 0.0643238 15.0956 0.064324 15.1918 0.0964859C16.0892 0.209053 16.9545 0.418106 17.8039 0.691482C17.9 0.723644 18.0122 0.755805 18.1083 0.804048C23.3005 2.68552 27.0023 7.67062 27.0023 13.5241C27.0023 19.3776 20.9448 27.0643 13.5091 27.0482" fill="#D5AE38"/>
<path id="Vector_19" d="M13.477 26.5025C6.32976 26.5025 0.544708 20.6973 0.544708 13.5252C0.544708 6.35308 0.576758 12.4156 0.656884 11.8689C0.656884 11.7402 0.688934 11.6116 0.720984 11.4668C1.44211 6.89984 4.53495 3.12081 8.70148 1.46447C8.81365 1.41622 8.9098 1.38406 9.02198 1.33582C10.4162 0.805147 11.9385 0.547852 13.493 0.547852C15.0474 0.547852 14.3744 0.580013 14.8231 0.612175C14.9192 0.612175 15.0154 0.612175 15.1115 0.644337C15.9608 0.756904 16.8102 0.949876 17.6114 1.22325C17.7076 1.25541 17.8037 1.28758 17.8999 1.31974C22.8837 3.12081 26.4252 7.89686 26.4252 13.5252C26.4252 19.1535 20.6241 26.5186 13.493 26.5186" fill="white"/>
<g id="Group_4">
<path id="Vector_20" d="M11.571 5.51329H11.6992L11.587 5.80274L11.7312 5.60977L11.6832 5.69018L11.7953 5.6741L11.6992 5.94747L12.0357 5.89923L11.9396 5.97964L11.9876 6.07612L12.0838 6.04396L12.0517 6.23693L11.7312 6.36558L11.8274 6.33342L11.8594 6.4299L11.603 6.59071L11.9075 6.70328L12.0678 6.63896L11.9716 6.73544L11.7953 6.75152L11.4909 7.00882L11.8594 6.96058L11.9075 6.88017H12.0678L12.6927 6.79977L12.7889 6.71936L12.6447 6.67112L12.837 6.52639L12.853 6.38166L12.5645 6.36558L12.6286 6.26909L12.5004 6.17261L12.5806 6.14045L12.3722 5.96355L12.3081 5.77058L12.0357 5.65802L12.1479 5.59369L12.0998 5.56153L12.228 5.46504L12.2921 5.28815L11.9075 5.30423L11.9716 5.25599L11.9235 5.22383L12.0998 5.12734L12.0678 5.0791L11.8114 5.09518L11.7473 5.15951V5.22383L11.6351 5.30423L11.6832 5.36856L11.571 5.51329Z" fill="#D5AE38"/>
<path id="Vector_21" d="M11.3951 6.51323L11.4912 6.09512L11.6194 5.98256L11.5233 5.85391L11.347 5.88607L11.315 5.80566L11.2829 5.90215V5.83783L11.1707 5.85391L11.0586 5.95039L11.1547 5.96647L11.0746 6.04688L10.8663 6.0308L10.7861 6.09512L10.8823 6.14337L10.7861 6.19161L10.8182 6.25593L10.9784 6.28809L10.8022 6.41674L10.9945 6.40066L10.706 6.51323L10.7861 6.54539L10.706 6.59363H10.8022L10.7381 6.65796L11.3951 6.51323Z" fill="#D5AE38"/>
<path id="Vector_22" d="M9.59896 3.03734L9.11821 3.00518L8.70156 3.0695L8.94193 3.00518H8.58938L8.71758 2.95694V2.89261L9.16629 2.84437L8.90988 2.79613L8.84578 2.74788L8.87783 2.71572L9.27846 2.81221L9.42269 2.97302H9.55089L9.58294 2.90869L9.71114 2.97302L9.64704 2.86045L9.72716 2.76396L9.58294 2.81221L9.69511 2.7318L9.51884 2.76396L9.63101 2.69964L9.35859 2.60315L9.21436 2.66748L9.24641 2.60315L9.37461 2.57099L9.07014 2.53883L9.35859 2.49059L9.10219 2.44234H9.23039L9.51884 2.34586L9.74319 2.45843L10.0316 2.41018L10.0637 2.34586L9.80729 2.23329L9.88741 2.20113L10.3041 2.23329L10.0477 2.20113L10.1118 2.13681H9.98356L10.1278 2.10464L9.95151 2.0564L10.288 2.12072L10.3361 2.00816L10.1278 1.92775L10.3201 1.89559L10.0477 1.86343L9.93549 1.78302L10.5765 1.73478V1.68654L10.272 1.65438L10.3361 1.62221L10.288 1.59005H10.4803L10.288 1.52573L10.1118 1.59005L10.3041 1.44532H10.272L10.3041 1.41316L10.6246 1.33276L10.5124 1.36492L10.5765 1.28451L10.8649 1.22019L10.4964 1.25235V1.20411L11.0572 1.1237H10.4002L11.2495 1.07546V1.02722L11.6181 0.962894L11.2015 0.850328C11.1374 0.850328 11.0572 0.818166 10.9931 0.786004C10.929 0.753842 10.8649 0.72168 10.8008 0.72168H10.7688L10.8649 0.995056L10.5124 0.753842C8.30093 1.25235 6.2978 2.34586 4.66324 3.84139L4.79144 4.09868L4.87156 4.13085H4.80746L4.83951 4.17909L4.66324 4.24341C4.66324 4.27558 4.61516 4.29166 4.59914 4.32382V4.50071L4.69529 4.53287L4.63119 4.58111L4.72734 4.66152L4.67926 4.69368L4.80746 4.66152L4.71131 4.70976L4.75939 4.75801L4.71131 4.79017H4.87156L4.72734 4.82233L4.91964 4.90273L4.80746 4.95098L5.27219 4.91881L5.19206 4.96706L5.32027 5.0153L5.25617 5.09571L5.32027 5.12787L5.59269 5.09571L5.52859 5.0153H5.65679L5.89717 4.74192V4.5972L5.86512 4.54895L6.07344 4.48463L6.02537 4.43639H6.13754V4.38814L6.2978 4.35598L6.21767 4.29166H6.34587V4.22733L6.2337 4.19517H6.426L6.31382 4.06652L6.3619 4.01828H6.58625L6.52215 3.95396L6.6183 3.92179H6.84265V3.85747H6.90675L6.97085 3.76098L7.067 3.79315L6.9388 3.85747L7.0029 3.88963L7.03495 3.84139L7.21123 3.88963L7.27533 3.77707H7.43558L7.67595 3.64842L7.78813 3.50369L7.99645 3.43936V3.31072L8.07658 3.42328H8.30093L8.38106 3.35896L8.94193 3.31072L9.66306 3.00518L9.59896 3.03734Z" fill="#D5AE38"/>
<path id="Vector_23" d="M15.3504 1.14043L15.2383 1.15651L15.3504 1.18867L15.735 1.17259L15.4466 1.22084L16.0235 1.253L16.2318 1.23692L16.4081 1.14043L16.0555 1.12435L16.1036 1.07611L15.8632 1.12435L15.8953 1.06003L15.8312 1.04395L15.7831 1.14043L15.4145 1.04395V1.07611L15.4466 1.10827L15.3665 1.07611L15.4145 1.14043L15.1581 1.12435L15.3504 1.14043Z" fill="#D5AE38"/>
<path id="Vector_24" d="M14.4388 1.23565L14.4068 1.28389L14.5029 1.31605L14.3587 1.29997L14.6151 1.36429L14.5029 1.38037L14.5831 1.42862L14.8074 1.39646L14.7754 1.38037L14.8074 1.33213L14.9036 1.31605L14.9356 1.38037L15.0638 1.33213L15.0478 1.38037L15.16 1.39646L14.6632 1.46078L14.7113 1.50902L15.1119 1.47686L14.8395 1.5251L14.9997 1.55727L14.7273 1.54118L14.7754 1.62159L15.0478 1.63767L14.9356 1.65375L15.0478 1.73416L15.1439 1.71807L15.2401 1.57335L15.2241 1.55727H15.3042L15.3202 1.46078H15.4003V1.39646L15.7048 1.33213L15.3523 1.25173L15.3042 1.20348L15.176 1.23565L15.2241 1.17132L15.0157 1.13916L14.9356 1.17132L15.0318 1.29997L14.8074 1.17132L14.6952 1.21957L14.7433 1.25173L14.4869 1.21957L14.6792 1.15524L14.2626 1.21957L14.3427 1.26781L14.4388 1.23565Z" fill="#D5AE38"/>
<path id="Vector_25" d="M22.4044 22.0795L22.4685 22.1921L22.5326 22.0795L22.4365 21.5006L22.2922 21.3076L22.2121 21.3559V21.5649L22.0839 21.6936L22.0198 21.6614V21.8061L21.9717 21.8544L22.0358 21.9187L21.9076 21.9991L21.8756 21.9348V22.0956L21.7794 22.0473L21.6993 22.1277L21.7314 22.2403L21.6192 22.1599L21.2666 22.2886L21.1384 22.5941L21.2506 23.1408L20.9622 23.6394L21.0102 24.1539L21.475 23.8967C21.8275 23.6233 22.2281 23.2695 22.4204 23.0926L22.5166 22.9961L22.3724 22.4172V22.1117L22.4044 22.0795Z" fill="#D5AE38"/>
<path id="Vector_26" d="M21.0407 2.86059L20.2235 3.18221L20.1754 3.31085L20.0312 3.37518L19.7267 3.21437L19.9671 3.15004L19.903 3.06964L19.3902 2.97315L19.5344 3.03748V3.24653L19.6786 3.31085V3.55207L19.3581 3.40734L19.0216 3.60031L19.2459 3.84152L18.7812 3.80936L18.8133 3.7772L18.5569 3.6968V3.80936L18.7492 3.85761L18.8293 3.98625L18.7171 4.01842L18.2203 3.85761V3.7772L18.1402 3.68071L18.1883 3.56815L17.7075 3.32693L18.8133 3.53599L19.1498 3.39126V3.32693L19.1017 3.21437L18.2364 2.90883L17.7877 2.87667L17.6434 2.82842L17.7877 2.79626L17.5954 2.74802L17.5633 2.79626L17.4511 2.7641L17.2588 2.79626L17.2909 2.74802L17.0986 2.69978L17.4351 2.65153L17.1467 2.57113L16.9864 2.63545L17.0185 2.60329L16.9544 2.57113L17.0345 2.52288L16.8903 2.49072L16.8262 2.61937L16.7621 2.65153V2.53897L16.5537 2.69978L16.6339 2.53897L16.5057 2.5068L16.2653 2.69978L16.0089 2.65153L16.089 2.7641L15.9608 2.71586L15.7845 2.86059V2.73194L15.7204 2.82842V2.7641H15.6403V2.81234L15.6884 2.86059L15.4961 2.81234L15.3999 2.90883L15.432 2.95707L15.2557 3.00531H15.4159L15.2236 3.05356V3.11788L15.1595 3.08572L15.0634 3.19829H15.1435L14.9672 3.23045L14.7749 3.37518V3.47166L14.6628 3.53599H14.7589L14.6467 3.60031L14.6788 3.64855L14.6307 3.60031L14.5987 3.66463L14.6467 3.6968L14.4865 3.74504L14.5346 3.7772L14.4865 3.82544H14.4064L14.2141 3.97017L14.2782 4.0345L13.8615 4.14706L13.7654 4.17922L13.8615 4.24355H13.6692L13.7013 4.30787H13.4609L13.6692 4.3722L13.4449 4.40436H13.4929L13.4449 4.53301L13.6852 4.48476L13.7654 4.53301L13.8455 4.4526L13.8134 4.51693H13.8615L13.7333 4.59733H13.4288V4.64557H13.509L13.4128 4.69382H13.4769V4.7903L13.6211 4.64557H13.7493L13.541 4.82246H13.6372L13.4449 4.90287H13.6372L13.4769 5.06368L13.6852 5.14408V5.19233H13.8455L14.166 4.95111H14.2782V4.82246L14.3262 4.85463L14.3583 4.77422V4.91895L14.4544 4.95111V5.09584L14.5826 5.24057V5.35314L14.7429 5.53003L14.6788 5.59435L14.7589 5.73908L14.7269 5.77124H14.9512L14.9993 5.64259L15.2717 5.61043L15.3839 5.32097V5.128L15.3518 5.09584H15.4159L15.3038 5.0476L15.7044 4.90287H15.5922L15.7364 4.77422L15.5121 4.61341L15.464 4.66165V4.21139L15.6243 4.13098L16.1371 3.82544L16.073 3.74504L16.121 3.63247L16.2172 3.58423L16.1691 3.53599L16.5217 3.50382L16.73 3.60031L16.7781 3.71288L16.6339 3.74504L16.1851 4.1149L16.089 4.19531L16.2172 4.43652L16.1691 4.61341L16.4255 4.67774L16.4896 4.75814L16.4576 4.7903L17.2268 4.62949L17.387 4.59733V4.67774L17.6755 4.75814L17.3229 4.7903L17.2749 4.85463L16.9223 4.80638L16.5698 4.91895L16.6018 5.09584H16.746L16.714 5.41746L16.4255 5.24057L16.2813 5.27273L16.1691 5.44962L16.2172 5.86773L16.121 5.83557L16.1851 5.69084L15.9287 5.98029L15.7845 6.01246L15.7525 5.89989H15.4961L14.9512 6.12502L14.7269 5.99638L14.6467 6.0607L14.6948 6.02854L14.3583 6.1411L14.4064 6.0607H14.2301L14.15 5.93205V5.73908L14.3903 5.61043L14.2461 5.54611L14.3102 5.28881L13.9416 5.4657L13.8936 5.77124L13.9897 5.81948V5.91597L14.0378 5.99638L13.9897 6.04462L14.0538 6.15719H13.9737V6.28583L13.7974 6.18935L13.6692 6.25367L13.7493 6.30191H13.3968L13.3647 6.52705L13.3167 6.49489V6.3984L13.1564 6.62353L13.3006 6.67178L13.0442 6.76826L12.9 6.8165L12.7398 6.84867L12.7077 7.00948L12.4513 7.12204L12.4994 7.18637H12.2109L12.0667 7.12204L12.1308 7.37934L11.7783 7.34718L11.5379 7.4115L11.5859 7.57231L12.0667 7.71704H12.0026V7.81352L12.1629 7.92609L12.227 8.16731L12.1789 8.11906L12.0667 8.55325L11.9706 8.60149L10.8007 8.53717L10.5764 8.69798L10.6885 8.85879L10.6405 8.97136V9.18041L10.4642 9.695L10.6084 9.74324L10.5603 10.097L10.8488 10.0649L11.009 10.097L11.2174 10.3382L11.4577 10.2096L11.9065 10.1774L12.3391 9.72716L12.275 9.56635L12.5154 9.22865L12.9641 8.98744V8.84271L12.9962 8.64974L13.1564 8.58541L13.3487 8.61757L13.557 8.6819L13.8134 8.50501L14.0538 8.36028L14.3102 8.47285L14.5025 8.84271L15.3358 9.38946L15.464 9.695L15.3679 9.83973L15.432 9.90405L15.6403 9.63068V9.53419L15.5121 9.46987L15.5602 9.32514L15.6403 9.27689L15.8807 9.4377V9.38946L15.8005 9.24473L15.3999 9.08392V8.95528L15.2717 8.98744L15.1756 8.92311L14.9352 8.56933L14.7269 8.44068L14.6788 8.15123L14.9352 8.10298L14.9833 8.26379L15.1275 8.16731L15.3999 8.58541L15.5602 8.61757L15.6884 8.71406H15.5922L16.0409 8.97136L16.089 9.00352L16.0409 9.32514L16.2012 9.50203L16.3935 9.66284L16.3294 9.695L16.4255 9.82365H16.714L16.9864 9.98446V9.85581L16.6819 9.67892H16.7621V9.58243L16.8262 9.61459L16.6819 9.42162V9.27689L16.8582 9.42162L16.8262 9.3573L16.9383 9.42162L16.9063 9.30906L17.0024 9.3573L16.8742 9.24473L17.0024 9.18041L17.339 9.22865H17.4832L17.371 9.38946L17.6274 9.18041H17.8838V9.11608L17.7236 9.05176L17.6755 8.97136L17.5633 8.82663L17.7556 8.52109L17.7877 8.23163V8.36028L17.8998 8.27987V8.15123L18.0601 7.99042L18.012 7.92609L18.0761 7.95825L18.3165 7.81352L18.3806 7.89393H18.2684H18.3485L18.3005 7.95825L18.653 8.0065L18.4607 8.15123L18.621 8.19947L18.653 8.3442L18.7652 8.37636L19.0216 8.21555H19.1979V8.13514L18.9094 8.16731L18.7972 8.02258L18.637 7.95825L18.7171 7.92609L18.8613 8.03866L18.8934 7.89393V7.97433L19.0216 7.84569L19.5985 7.68488L19.6466 7.73312L19.5023 7.82961H19.3581L19.5023 7.97433L19.1818 8.18339L20.1113 8.74622L20.2074 8.92311V9.03568L19.9831 9.18041H19.5504L19.1979 9.11608L18.9415 8.93919H18.6049L18.1883 9.19649L17.8197 9.14825V9.22865L17.9639 9.27689L17.387 9.34122L17.3229 9.4377L17.2749 9.56635H17.4191V9.75932L17.4832 9.80757L17.355 9.75932V9.85581L17.4992 9.90405L17.5473 10.1453H17.7396L17.5793 10.2257L17.8037 10.1774L18.0761 10.3382L18.2844 10.1774L18.669 10.3865L19.0056 10.1935L19.1818 10.2578L19.278 10.1935V10.4508L19.31 10.7081L19.1498 11.094L18.9895 11.5282L18.7812 11.5765L18.5889 11.5282L18.5248 11.4639H18.2844L17.9479 11.6408L17.1787 11.4317L16.7781 11.3031L16.714 11.1744H16.3294L16.1371 11.3192V11.6569L15.9287 11.7534L15.6723 11.5926L15.3038 11.4961L15.1756 11.2549L14.4384 11.0619L14.15 10.8689L14.4064 10.5634L14.2782 10.3382L14.3743 10.1292L14.2621 10.1774L14.1019 10.0488L13.9096 10.1292H13.1885L12.4673 10.2418L11.8263 10.5955L11.3616 10.5634L11.1693 10.3865L11.0731 10.4347L10.8808 10.8207L10.368 11.2066L10.2078 11.48V11.7855L10.1437 11.9142L10.0796 12.0107L9.51871 12.3644L9.40654 12.5896L9.19821 12.7504L9.11809 13.0077L8.68541 13.667L8.62131 13.9404L8.76553 14.1012L8.70144 14.3424L8.78156 14.5515L8.65336 15.1304L8.57323 15.3555L8.42901 15.452L8.63733 15.7254L8.58926 15.854V15.9987L8.76553 16.1756L8.97386 16.1113L8.84566 16.1756L8.92579 16.3525L9.29436 16.8028L9.35846 17.0922L9.66294 17.3174L10.1116 17.7676L10.4802 17.9285L11.0571 17.7676H11.4097L11.6501 17.8802L12.3071 17.5425L12.4513 17.5104H12.6276L12.9321 17.4782L13.0763 17.6068L13.1724 17.7033V17.8481L13.3327 17.9767L13.7814 17.8481L13.9096 17.9928L14.0538 18.0249L14.1019 18.2018L14.0538 18.4591L13.9737 18.6843L14.0218 18.7325L13.9737 18.8451L14.0859 18.9255H13.9577V19.0702L13.8615 19.1506L13.9737 19.424L14.3583 19.9225L14.5506 20.1798L14.5987 20.3567V20.4532L14.807 20.9356L14.7589 21.1607L14.9031 21.611L14.8711 21.9005L14.6147 22.2542L14.4705 23.0905V23.2834L15.0313 24.3287V24.7146L15.1756 25.4704L15.448 25.776L15.7364 26.6122C15.8166 26.6122 15.8967 26.58 15.9768 26.5639C16.3935 26.4835 17.2268 26.2745 18.1562 25.9207C18.3165 25.8564 18.4767 25.7921 18.637 25.7116L18.7812 25.1649L18.7011 25.1327L18.7652 25.0363L19.1818 24.8594L19.3261 24.6985L19.3741 24.2322L19.2139 23.8623V23.7015L19.7908 23.1548L20.1273 23.01L20.4478 22.6563L20.4959 21.4341L20.3837 21.3376L20.3036 21.0803L20.3356 20.6461L20.1914 20.4532L20.2876 20.0511L20.5119 19.5848L20.7683 19.3275L20.9927 18.9898L21.6497 18.4109L22.0343 17.9606L22.2907 17.5747L22.5471 16.9797L22.6913 16.4973H22.7875L22.7234 16.449L22.7554 16.1274L22.6433 16.0791L22.3388 16.2078L21.3613 16.4651L21.1049 16.2078L20.9606 16.1756L21.1209 16.0631L21.0568 15.8701L20.6722 15.452L20.4478 15.3716L20.3837 15.2269L20.3356 15.2912L20.0472 14.6158L19.8068 14.4067L19.6626 13.6831L19.4062 13.4258L19.3581 13.2489H19.4222L19.294 13.1042L18.9094 12.284L18.7492 12.0589L18.7011 11.8016L19.0376 12.3323L19.1017 12.3001L19.1818 11.9463H19.2139L19.1658 12.268H19.278L19.7908 13.1363L19.9991 13.265L20.1433 13.6027L20.2074 14.0208L20.544 14.2942L20.9446 15.0339V15.2912L21.1529 15.9023H21.4414L21.6177 15.7414L22.2106 15.5806L22.3708 15.4198L22.9317 15.2108V15.066L23.092 14.9696L23.4766 14.8892L23.6048 14.6801L23.765 14.6319L23.8291 14.455L24.0374 14.3746V14.0529H24.1656L24.39 13.5705L24.1496 13.3132L23.749 13.1685L23.6208 13.0077L23.5887 12.8308V12.67L23.5407 12.7182L23.1561 13.1846H22.7234L22.6112 13.1363V13.0559L22.6433 12.7665L22.5471 12.7021L22.483 13.0398L22.3228 12.7825L22.2907 12.5574L21.9221 12.1071L21.7779 11.9303L21.8901 11.8499L21.826 11.7855H21.9382L21.9862 11.6408L22.1305 11.7855L22.2106 11.7373L22.5631 12.284L23.0279 12.5574L23.2362 12.5896L23.5887 12.4448L23.6849 12.4931L23.8291 12.7825L24.6784 12.9112L25.3515 12.879H25.656L25.9124 13.2167L26.0246 13.2489L26.2329 13.474L26.4733 13.4419C26.4733 9.16433 24.3259 5.33706 21.0568 2.98923V2.86059H21.0407ZM17.8037 4.7903L17.5954 4.48476L17.7396 4.40436L17.996 4.51693L18.0921 4.66165L17.8037 4.7903Z" fill="#D5AE38"/>
<path id="Vector_27" d="M17.7546 4.40332L17.6104 4.49981L17.8027 4.78926L18.0912 4.66062L17.995 4.51589L17.7546 4.40332Z" fill="#D5AE38"/>
</g>
<g id="Group_5">
<path id="Vector_28" d="M37.2268 24.4751C36.4255 23.269 35.3518 21.7252 35.3518 21.7252L34.15 19.8598L35.1435 17.2869C38.8133 14.135 40.4318 12.4465 40.0312 8.13679C39.6145 3.82709 32.3712 0.803865 29.727 1.41494C27.0989 2.00994 24.4868 4.13263 23.7176 5.06532C22.9484 5.98194 23.6055 6.03018 23.4933 6.88247C23.3811 7.73476 22.2273 8.6353 21.3139 9.14989C20.4004 9.68056 19.8716 9.97002 19.9037 10.3399C19.9357 10.7097 20.8652 11.4173 20.8652 11.4173C20.8652 11.4173 20.753 11.8354 20.5607 12.3018C20.3684 12.8003 20.3043 12.9289 20.4485 13.1219C20.5927 13.3149 21.7465 13.8616 21.7465 13.8616H20.6729C19.9678 13.8616 19.9678 14.4566 20.3363 14.9069C20.7049 15.3571 20.5607 15.5662 20.112 16.0969C19.6633 16.6275 19.455 17.0617 19.8075 17.8175C20.1921 18.5573 22.035 18.4769 22.035 18.4769C22.035 18.4769 22.9164 20.0528 23.2209 21.3875C23.5253 22.7222 24.9836 24.6519 25.3682 25.6972C25.7368 26.7425 25.1439 28.0772 25.1439 28.0772C23.6535 29.7818 22.7401 31.7597 22.2273 33.1105L21.9869 33.7699C28.2527 32.8532 33.6692 29.3958 37.1947 24.459H37.2268V24.4751Z" fill="#F6E7B2"/>
<path id="Vector_29" d="M17.949 30.6675C17.949 30.6675 17.7247 28.7378 17.5965 28.384C17.4683 28.0302 16.4427 26.7115 16.4427 26.7115C15.5613 26.9367 14.2312 27.0171 14.2312 27.0171C14.2312 27.0171 12.6768 24.5889 12.4044 24.0743C12.1159 23.5436 10.6256 22.225 9.92047 21.4691C9.23139 20.7133 8.83076 21.646 9.00704 22.3858C9.18331 23.1416 10.2249 24.5245 10.3371 24.9909C10.4493 25.4572 9.58394 25.9718 9.58394 25.9718C9.58394 25.9718 7.74106 25.2803 6.7475 24.814C5.75395 24.3476 4.85654 23.3667 4.19951 22.7395C3.57453 22.1124 2.45278 21.2923 2.13228 21.2923C1.81177 21.2923 1.66755 21.7586 1.956 22.1606C2.24445 22.5787 3.70273 24.6532 4.26361 25.2321C4.84052 25.811 5.70587 27.0171 6.15457 27.8372C6.6193 28.6413 7.48465 28.8825 9.50382 29.59C11.523 30.2815 11.7473 31.166 11.8755 31.7288C11.9076 31.8896 11.9076 32.1952 11.9076 32.5489C11.9076 32.9027 11.9076 32.758 11.8755 32.9831C13.8787 33.6103 16.01 33.9801 18.2375 34.0284L18.0933 32.2273L17.949 30.6675Z" fill="#F6E7B2"/>
</g>
<g id="Group_6">
<path id="Vector_30" d="M27.5489 19.9084C27.2444 19.7797 22.2285 18.7827 22.2285 18.7827C22.2285 18.7827 23.1099 20.2782 23.2061 20.825C23.3022 21.3878 23.4625 22.0311 23.8471 22.6582C24.2477 23.2854 25.4015 25.2955 25.4816 25.6332C25.5618 25.987 25.3534 27.9971 25.3534 27.9971L27.7572 26.2765C27.7572 26.2765 27.5328 25.6332 27.3726 25.0382C27.2284 24.4593 27.3245 23.7839 27.3726 23.0603C27.3726 22.3366 27.5969 21.4522 27.8533 20.825C28.1097 20.2139 27.8533 20.021 27.5649 19.8923H27.5489V19.9084Z" fill="white"/>
<path id="Vector_31" d="M33.637 1.99374C28.3808 0.353485 25.6084 3.19982 24.4065 4.35765C23.2047 5.51548 23.3329 5.82102 23.429 6.30345C23.5252 6.81804 23.397 7.33263 23.0765 7.8633C22.7399 8.39397 21.2817 9.16586 20.833 9.37491C20.3842 9.58397 19.9355 9.96991 19.9836 10.4041C20.0317 10.8383 20.9291 11.3529 20.9291 11.3529C20.9291 11.3529 20.6727 11.9961 20.4163 12.5268C20.1599 13.0575 20.3682 13.0092 20.4964 13.1218C20.6246 13.2343 21.8586 13.8454 21.8586 13.8454C21.8586 13.8454 21.2176 13.8454 20.7528 13.8133C20.2881 13.7811 20.2721 13.8615 20.224 14.0866C20.1599 14.3439 20.3522 14.762 20.5285 15.0354C20.7048 15.3088 20.4964 15.6626 20.3041 15.936C20.0958 16.2093 19.4868 16.7078 19.8394 17.6727C20.224 18.6215 22.3073 18.4124 22.3073 18.4124C20.849 18.3642 21.2817 17.5923 22.0028 16.8365C22.3393 16.4827 23.5893 15.5822 24.1021 15.148C24.6309 14.7138 25.1277 14.6656 24.3264 13.8937C22.9322 12.5429 23.7655 12.2373 24.2944 11.8353C24.8232 11.4333 26.2655 10.9187 26.4738 10.4041C26.6821 9.8895 25.8809 9.16586 25.8809 9.16586C25.8809 9.16586 26.634 9.2141 27.0507 9.19802C27.4834 9.16586 27.4032 8.86032 26.8263 8.26532C26.2494 7.67033 26.1373 7.23614 26.0892 6.67331C26.0411 6.11047 24.7911 6.04615 24.7431 5.98183C24.695 5.90142 24.8392 5.66021 24.9514 5.53156C25.4963 4.92048 28.2846 0.900238 33.8453 2.89428C40.1752 5.1617 40.2393 10.2272 40.2393 10.2272C40.5438 7.81506 38.8772 3.60184 33.637 1.96158V1.99374Z" fill="white"/>
</g>
<g id="Group_7">
<path id="Vector_32" d="M31.8915 15.3397C31.4588 15.2754 31.1223 15.4201 30.8819 15.6935C30.6416 15.983 30.8499 16.385 31.0262 16.4172C31.1383 16.4172 31.3146 16.2885 31.2185 16.1759C31.1223 16.0634 31.1544 15.79 31.4268 15.6613C31.7152 15.5327 31.9716 15.6613 32.2441 15.6613C32.6607 15.6613 33.1895 15.4362 33.478 15.002C33.6863 14.6643 33.9748 14.1658 33.6222 13.5708C33.1735 12.7989 32.2441 13.1688 32.196 13.2814C32.0518 13.6351 32.1479 13.5547 32.3723 13.4583C32.5806 13.3618 32.9492 13.3457 33.2536 13.7638C33.478 14.0693 33.3177 14.4874 33.1415 14.7608C32.9652 15.0342 32.4364 15.404 31.8915 15.3397Z" fill="#D5AE38"/>
<path id="Vector_33" d="M25.2393 8.63458C25.031 8.44161 24.422 7.95918 24.2457 7.84661C24.0695 7.73405 24.0054 7.92702 23.9252 8.08783C23.8451 8.24864 23.8131 8.68282 23.8131 8.79539C23.8131 8.90796 23.9413 8.89188 24.2938 8.97228C24.4541 9.00444 25.6239 9.11701 25.6239 9.11701C25.5918 9.0366 25.4476 8.82755 25.2393 8.63458Z" fill="#D5AE38"/>
<path id="Vector_34" d="M20.8167 10.8544C20.5442 10.7901 20.5282 10.8062 20.5603 10.8544C20.5603 10.8866 20.9449 11.1278 21.1692 11.2725C21.4256 11.4012 21.5218 11.4334 21.5859 11.4012C21.666 11.369 21.8102 11.3369 21.5859 11.1117C21.3455 10.8866 21.0891 10.9027 20.8327 10.8384H20.8167V10.8544Z" fill="#D5AE38"/>
</g>
<g id="Group_8">
<path id="Vector_35" d="M32.372 1.38277C27.5164 0.273186 23.8947 4.47032 23.5261 4.95275C22.9012 5.72464 23.1736 5.8372 23.2697 6.48044C23.2697 6.48044 23.3499 7.33274 22.773 7.92773C22.3403 8.39408 21.4589 8.89259 20.866 9.23029C20.273 9.58407 19.8404 9.69664 19.7602 10.0343C19.6801 10.3881 19.584 10.565 20.4493 11.1439L20.8179 11.4655C20.7057 11.7711 20.7057 11.8032 20.4814 12.2374C20.273 12.6395 19.9846 13.0415 20.3692 13.2184C20.7378 13.3953 21.507 13.7973 21.507 13.7973C21.507 13.7973 20.6256 13.733 20.4493 13.733C20.273 13.733 20.0807 13.8616 20.0327 14.1511C19.9846 14.4084 19.9525 14.5531 20.241 14.8747C20.5294 15.2285 20.4974 15.518 20.2089 15.7913C19.9205 16.0486 19.2795 16.7079 19.4718 17.4798C19.6801 18.3 20.0807 18.5733 21.6031 18.702H21.7954C21.8275 18.7341 22.5005 19.6186 22.6928 20.0367C22.9012 20.4709 23.0133 21.0659 23.2217 21.8056C23.3979 22.4649 23.7986 23.0438 24.2793 23.7514C24.3434 23.8318 24.3915 23.9283 24.4556 24.0087C25.0004 24.8288 25.3049 25.5846 25.337 26.0027C25.369 26.4048 25.1447 27.643 25.1126 27.8038L24.8242 28.0933C24.728 28.1898 24.4876 28.431 24.3755 28.5757C23.1415 30.1195 22.3082 31.8401 21.7794 33.1588C21.7794 33.1588 21.7794 33.1909 21.7474 33.2553C21.7474 33.3196 21.6993 33.4 21.6512 33.4965C21.6192 33.593 21.5711 33.7055 21.523 33.8503C27.917 33.0623 33.4777 29.7014 37.2596 24.8771C37.3718 24.7163 37.484 24.5715 37.5962 24.4107C37.484 24.2499 37.3878 24.1052 37.2596 23.9122C37.2169 23.8586 37.2169 23.8586 37.2596 23.9122C37.2276 23.864 37.1795 23.7997 37.1475 23.7514C36.2821 22.5132 35.0802 20.8247 35.0802 20.8247C34.7597 20.3262 34.4392 19.9081 34.4873 19.6829C34.5514 19.4578 35.0962 17.6085 35.3046 17.3994C35.5129 17.1904 40.032 14.4405 40.4807 10.5811C40.9294 6.72166 38.7179 2.81398 32.372 1.36669V1.38277ZM39.8557 10.6615C39.6794 12.1409 38.8461 14.1672 35.2245 16.8044L34.952 17.0135C34.7277 17.4637 33.9905 19.699 33.9905 19.699C33.9104 19.892 33.9264 20.1975 34.3751 20.8086C34.4713 20.9372 35.577 22.5293 36.4584 23.7836C36.6186 24.0087 36.7629 24.2338 36.9071 24.4268C33.4296 28.8812 28.4298 32.1135 22.4685 33.2392C22.5166 33.0945 22.5807 32.9497 22.5807 32.9336C23.2377 31.2291 24.0229 29.83 24.9524 28.8008C27.2279 26.2279 30.2086 25.3756 32.0194 25.1022C32.5002 25.0218 32.9008 24.9896 33.2053 24.9736H33.3014C33.4457 24.9736 33.6059 24.9736 33.6219 24.9414C33.6219 24.861 33.4457 24.7967 33.4136 24.7967C33.2373 24.7484 32.9489 24.7324 32.5643 24.7645C30.1124 25.0218 27.0517 26.2279 25.5934 27.4822C25.6575 27.048 25.7376 26.5173 25.7376 26.1796V25.8419C25.7055 25.3434 25.3049 24.6037 24.8081 23.7997C24.7761 23.7353 24.728 23.6871 24.696 23.6228C24.696 23.6228 23.6704 22.1755 23.5582 21.484C23.446 20.7925 23.5261 20.6799 23.3659 20.3262C23.1896 19.9402 22.9332 19.3774 22.5486 18.7663C23.2697 18.7985 25.1927 18.8467 25.4652 18.8789C25.8177 18.911 27.0677 19.0558 27.7247 19.0558C28.3817 19.0558 29.215 18.8628 29.7759 17.4798C29.7759 17.4798 29.9201 17.705 30.3208 17.8979C30.7214 18.0909 31.5227 17.6728 31.8432 17.4959C32.4201 17.1904 34.0226 16.2094 34.4713 15.3732C34.92 14.537 35.0161 13.1058 34.1988 12.2857C33.5258 11.6103 32.3399 12.2535 32.2438 12.3178C32.1156 12.4304 32.0996 12.4304 32.1797 12.6234C32.2278 12.7359 32.2758 12.7038 32.4361 12.6234C32.5963 12.543 33.6059 12.1731 33.9905 12.6716C34.3911 13.2023 34.5514 13.9903 34.1347 15.0355C33.7021 16.0808 32.5322 16.6919 32.2278 16.8688C31.5066 17.3351 30.8176 17.5924 30.5772 17.4637C30.3047 17.319 29.9842 17.1904 29.9682 16.4024C29.9682 16.3059 29.824 16.322 29.7439 16.4667C29.6477 16.6115 29.3272 17.3833 28.9907 17.9301C28.7503 18.2839 28.4138 18.5733 27.3722 18.5251C26.2023 18.4929 25.4011 18.4125 24.8722 18.3804C24.3755 18.3482 21.3307 18.3804 20.5775 18.1231C20.241 17.9462 20.0647 17.7371 20.0006 17.4637C19.8404 16.724 20.1288 16.3863 20.5134 16.0486C20.7538 15.8235 20.9301 15.5662 20.9301 15.3089C20.9301 15.0516 20.4333 14.73 20.3852 14.5853C20.3371 14.4244 20.4173 14.1993 20.4814 14.1028C20.5935 13.9259 22.18 14.1832 22.2121 14.0224C22.2602 13.8616 20.6737 13.154 20.6096 12.9932C20.5455 12.8324 20.6576 12.5751 20.7378 12.4304C20.8179 12.2857 21.1544 11.3691 21.1544 11.3691C21.1544 11.3691 20.5935 10.951 20.5775 10.9349C20.1448 10.6454 20.1929 10.4846 20.1929 10.3881C20.1929 10.2434 20.225 10.0826 20.273 10.0183C20.5134 9.69664 22.4204 8.89259 22.9012 8.39408C23.3659 7.89557 23.6864 7.57395 23.7024 7.12368C23.9428 7.12368 24.6479 7.68652 24.8562 7.81516C25.0004 7.91165 25.3209 8.15286 25.353 8.18503C25.385 8.21719 25.4812 8.26543 25.4812 8.26543C25.2568 7.89557 24.2152 6.96287 23.9268 6.67341C23.6383 6.38396 23.5902 6.11058 23.6223 5.86937V5.74072C23.6704 5.62815 23.7345 5.51558 23.8466 5.37086C23.9909 5.17788 27.5164 0.884263 32.2117 1.96169C35.0802 2.62101 37.1795 3.811 38.5096 5.4995C39.4711 6.72166 39.9679 8.20111 39.9679 9.77704C39.9198 10.0022 39.9038 10.3077 39.8717 10.6133V10.6615H39.8557Z" fill="#D5AE38"/>
<path id="Vector_36" d="M11.7141 32.6935V33.0794C13.8775 33.7227 16.1691 34.0604 18.5408 34.0604C18.5408 33.9478 18.5408 33.8352 18.5088 33.7227V33.5458C18.3325 31.8251 18.1082 29.7828 17.9319 28.7054C17.7556 27.6923 17.2428 27.3224 16.6979 26.6792L16.2332 26.7757C16.2332 26.7757 17.1947 27.8692 17.3229 28.1908C17.4191 28.4159 17.7075 30.6834 17.9159 33.5458C17.2588 33.5458 16.5537 33.4975 15.9127 33.4332C15.9127 33.1437 15.8807 32.9347 15.8807 32.9186C15.7685 31.407 15.6563 29.6863 15.6243 29.3165C15.5441 28.6571 15.2236 27.9335 13.8134 26.0038C12.8359 24.653 12.7077 24.1223 12.5154 23.7525C12.4353 23.5916 12.3231 23.463 12.1308 23.3183C11.5058 22.8358 10.368 21.6137 9.98344 21.276C9.58281 20.9222 9.19821 20.7131 8.87771 21.4368C8.5572 22.1444 9.02193 23.1896 9.50268 23.8972C9.99946 24.6047 10.1757 24.862 10.0956 25.3123C10.0475 25.6178 9.58281 25.8591 9.58281 25.8591C9.58281 25.8591 7.86813 25.1033 7.2111 24.8138C6.55407 24.5404 6.63419 24.653 6.31369 24.3314C5.99319 24.0097 4.82336 23.0449 4.58298 22.8841C4.34261 22.7233 4.16633 22.2891 3.55738 21.8067C2.9324 21.3242 2.45165 20.9061 1.89077 21.2277C1.32989 21.5494 1.58629 21.8227 2.035 22.6107C2.49972 23.4147 2.94843 23.9454 3.54135 24.6851C4.11826 25.4249 4.90349 26.2128 5.25604 26.6792C5.60859 27.1616 6.21754 28.5928 7.16302 28.9144C8.1085 29.2361 10.6725 30.1848 11.1853 30.7155C11.2174 30.7638 11.2654 30.7959 11.2975 30.8442C11.602 31.1497 11.7782 31.3748 11.7302 32.6131V32.6774L11.7141 32.6935ZM11.5859 30.5708L11.4738 30.4582C11.4257 30.3939 11.3616 30.3456 11.2815 30.2813C10.3039 29.5416 7.41942 28.5607 7.2752 28.5285C6.6983 28.3355 6.21754 27.5154 5.89704 26.9526C5.76884 26.7435 5.67269 26.5666 5.56051 26.4219C5.36821 26.1807 5.11181 25.8751 4.80734 25.5374C4.48683 25.1837 4.15031 24.7977 3.84583 24.4118L3.5734 24.0741C3.10868 23.4952 2.75612 23.0288 2.37152 22.3695L2.2273 22.1283C2.11512 21.9353 1.98692 21.7102 1.95487 21.6137C1.95487 21.6137 2.00295 21.5815 2.05102 21.5494C2.27537 21.4207 2.4837 21.5494 3.07663 21.9835L3.2529 22.1122C3.58943 22.3695 3.78173 22.6107 3.92596 22.8037C4.05416 22.9645 4.16633 23.1092 4.31056 23.2057C4.51888 23.3504 5.65666 24.2831 5.97717 24.6047C6.24959 24.862 6.32972 24.9103 6.60214 25.0228L7.0188 25.1837C7.0188 25.1837 9.32641 26.0842 9.34243 26.1324C9.13411 26.3415 9.08603 26.6149 9.29436 26.4701C9.64691 26.2128 10.7046 25.6822 10.5283 25.1033C10.336 24.5243 10.1116 24.1545 9.77511 23.656C9.43858 23.1735 9.08603 22.4821 9.08603 21.9675C9.08603 21.4529 9.11808 21.678 9.16616 21.5494C9.40653 21.1634 9.61486 21.3564 9.77511 21.5494C9.96741 21.7584 10.1277 21.9996 10.352 22.2248C10.7687 22.675 11.3295 23.2379 11.7622 23.5756C11.8584 23.6399 11.9064 23.7042 11.9545 23.7525C12.0346 23.8489 12.0667 23.9776 12.1789 24.2027C12.3872 24.5887 12.5154 25.0228 13.2526 26.0199C14.8711 28.2069 15.0954 28.9305 15.1275 29.2361C15.1595 29.5416 15.2557 31.2623 15.3358 32.9508V33.3689C14.5025 33.2724 13.6692 33.1277 12.868 32.9347C12.6116 32.8704 12.3391 32.79 12.0987 32.7096V32.3558C12.0987 31.3105 11.9225 30.8924 11.5539 30.5386L11.5859 30.5708Z" fill="#D5AE38"/>
</g>
</g>
</g>
<g id="Frame 626690">
<g id="Group_9">
<path id="Vector_37" d="M110.761 24.7382H117.036V30.3156H97.2964V25.6521L106.951 16.8895C109.119 14.9138 110.075 13.3952 110.075 11.8362C110.075 10.2772 108.701 9.02729 106.735 9.02729C104.77 9.02729 103.006 10.089 101.296 12.4006L97.2291 8.53002C99.9221 4.84757 103.086 3.28857 107.045 3.28857C112.674 3.28857 116.403 6.47376 116.403 11.4061C116.403 16.3384 114.774 17.8168 110.775 21.1633L106.399 24.8457L110.775 24.7382H110.761Z" fill="url(#paint0_linear_586_9668)"/>
<path id="Vector_38" d="M139.319 21.7811C139.319 27.2779 135.401 30.7722 129.247 30.7722C123.094 30.7722 121.761 29.3341 119.431 26.8612L122.663 22.5337C124.413 24.3615 126.46 25.2216 128.668 25.2216C130.877 25.2216 133.045 23.8239 133.045 21.4988C133.045 19.1738 131.146 17.7761 128.103 17.7761C125.06 17.7761 125.019 18.1121 123.579 18.6496L121.034 17.0235L122.017 3.74512H137.986V9.05376H127.187L126.851 13.6098C127.955 13.3007 129.099 13.1528 130.392 13.1528C135.643 13.1528 139.333 16.6068 139.333 21.7676L139.319 21.7811Z" fill="url(#paint1_linear_586_9668)"/>
</g>
<g id="Group 1535">
<g id="Group_10">
<path id="Vector_39" d="M153.315 12.9851L152.364 10.5583H149.317L148.382 12.9851H147.495L150.494 5.31641H151.235L154.218 12.9851H153.315ZM152.09 9.74938L151.203 7.38728C151.09 7.07989 150.961 6.72396 150.849 6.28713C150.768 6.62688 150.655 6.98282 150.51 7.38728L149.623 9.74938H152.09Z" fill="#AF8F32"/>
<path id="Vector_40" d="M159.814 12.9856L158.766 9.62046C158.701 9.41014 158.572 8.95713 158.395 8.21291H158.347C158.201 8.81152 158.089 9.29689 157.976 9.62046L156.896 12.9695H155.896L154.332 7.24219H155.235C155.606 8.68209 155.88 9.78225 156.073 10.5265C156.267 11.2707 156.38 11.7884 156.412 12.0473H156.46C156.492 11.8531 156.557 11.5781 156.654 11.2869C156.734 10.9633 156.815 10.7206 156.879 10.5426L157.927 7.25837H158.862L159.878 10.5426C160.072 11.1413 160.217 11.6428 160.281 12.0635H160.33C160.33 11.934 160.378 11.7399 160.443 11.481C160.507 11.2222 160.878 9.79843 161.523 7.27455H162.409L160.829 13.0018H159.798H159.814V12.9856Z" fill="#AF8F32"/>
<path id="Vector_41" d="M166.971 12.9859L166.793 12.177H166.745C166.455 12.5329 166.165 12.7756 165.891 12.905C165.616 13.0344 165.262 13.0992 164.826 13.0992C164.391 13.0992 163.811 12.9535 163.488 12.6461C163.166 12.3549 163.005 11.9505 163.005 11.4004C163.005 10.2355 163.924 9.6369 165.778 9.58836L166.745 9.55601V9.20008C166.745 8.74707 166.648 8.4235 166.455 8.21317C166.261 8.00285 165.939 7.8896 165.536 7.8896C165.133 7.8896 164.52 8.03521 163.907 8.3426L163.633 7.67927C163.924 7.51749 164.214 7.40424 164.552 7.30716C164.891 7.21009 165.213 7.17773 165.552 7.17773C166.229 7.17773 166.745 7.33952 167.067 7.64692C167.406 7.95431 167.567 8.4235 167.567 9.103V13.0183H166.971V12.9859ZM165.02 12.3873C165.568 12.3873 165.971 12.2417 166.294 11.9343C166.6 11.6269 166.761 11.2224 166.761 10.6885V10.1708L165.907 10.2032C165.229 10.2355 164.73 10.3326 164.407 10.5267C164.101 10.7209 163.94 11.0121 163.94 11.4166C163.94 11.821 164.036 11.9828 164.23 12.1284C164.423 12.274 164.697 12.3711 165.02 12.3711V12.3873Z" fill="#AF8F32"/>
<path id="Vector_42" d="M172.002 7.14697C172.26 7.14697 172.486 7.14697 172.679 7.21169L172.55 8.00445C172.308 7.95591 172.099 7.92355 171.937 7.92355C171.47 7.92355 171.083 8.1177 170.744 8.48981C170.406 8.8781 170.245 9.3311 170.245 9.89736V12.9713H169.39V7.26022H170.099L170.196 8.32802H170.245C170.454 7.95591 170.712 7.68087 171.002 7.47055C171.309 7.26022 171.631 7.14697 171.986 7.14697H172.002Z" fill="#AF8F32"/>
<path id="Vector_43" d="M177.628 12.2256H177.579C177.176 12.8081 176.58 13.0993 175.79 13.0993C175 13.0993 174.468 12.8404 174.033 12.3389C173.613 11.8212 173.42 11.0931 173.42 10.1548C173.42 9.2164 173.629 8.47218 174.033 7.95446C174.452 7.42056 175.032 7.17788 175.774 7.17788C176.515 7.17788 177.144 7.4691 177.547 8.01918H177.612L177.579 7.59853V4.84814H178.434V12.986H177.741L177.644 12.2256H177.628ZM175.903 12.3713C176.483 12.3713 176.918 12.2095 177.193 11.8859C177.467 11.5623 177.596 11.0446 177.596 10.3166V10.1386C177.596 9.32965 177.467 8.74722 177.193 8.39129C176.918 8.03536 176.499 7.85739 175.903 7.85739C175.306 7.85739 175.016 8.05153 174.742 8.43982C174.468 8.84429 174.339 9.39437 174.339 10.1224C174.339 10.8505 174.468 11.4005 174.742 11.7888C174.984 12.1609 175.371 12.3551 175.903 12.3551V12.3713Z" fill="#AF8F32"/>
<path id="Vector_44" d="M183.965 11.4323C183.965 11.9662 183.771 12.3707 183.384 12.6619C182.981 12.9531 182.433 13.0987 181.708 13.0987C180.982 13.0987 180.353 12.9693 179.95 12.7266V11.9339C180.224 12.0795 180.531 12.1927 180.837 12.2736C181.143 12.3545 181.45 12.403 181.74 12.403C182.191 12.403 182.53 12.3221 182.788 12.1765C183.03 12.0309 183.159 11.8044 183.159 11.5294C183.159 11.2544 183.062 11.1087 182.868 10.947C182.675 10.7852 182.288 10.591 181.74 10.3807C181.208 10.1866 180.837 10.0086 180.611 9.8468C180.386 9.7012 180.208 9.52323 180.111 9.32908C179.999 9.13494 179.95 8.90844 179.95 8.66576C179.95 8.19657 180.144 7.84064 180.531 7.5656C180.918 7.29056 181.417 7.16113 182.095 7.16113C182.772 7.16113 183.304 7.29056 183.884 7.54942L183.578 8.24511C182.997 8.00243 182.481 7.88918 182.014 7.88918C181.546 7.88918 181.305 7.95389 181.095 8.08332C180.885 8.21275 180.772 8.39072 180.772 8.61722C180.772 8.84372 180.805 8.90844 180.885 9.02169C180.966 9.13494 181.095 9.23201 181.272 9.32908C181.45 9.42616 181.788 9.57177 182.272 9.76591C182.949 10.0248 183.4 10.2675 183.642 10.5101C183.836 10.7366 183.965 11.0602 183.965 11.4323Z" fill="#AF8F32"/>
</g>
<g id="Group_11">
<path id="Vector_45" d="M149.929 28.4671C150.09 28.4671 150.235 28.4671 150.38 28.4347C150.525 28.4347 150.638 28.3862 150.719 28.37V29.0334C150.622 29.0819 150.477 29.1143 150.299 29.1466C150.122 29.179 149.945 29.1951 149.8 29.1951C148.703 29.1951 148.139 28.6127 148.139 27.4317V24.0179H147.333V23.5973L148.139 23.2252L148.51 21.9956H149.01V23.3223H150.67V23.9856H149.01V27.3508C149.01 27.7067 149.09 27.9494 149.251 28.1435C149.429 28.3377 149.654 28.4347 149.929 28.4347V28.4671Z" fill="#AF8F32"/>
<path id="Vector_46" d="M156.781 26.2011C156.781 27.1394 156.539 27.8675 156.088 28.3852C155.62 28.9191 154.975 29.1618 154.153 29.1618C153.331 29.1618 153.185 29.0324 152.782 28.7897C152.379 28.547 152.089 28.2072 151.863 27.7542C151.638 27.3012 151.541 26.7835 151.541 26.1687C151.541 25.2304 151.783 24.5023 152.234 23.9846C152.686 23.4669 153.347 23.208 154.169 23.208C154.991 23.208 155.604 23.483 156.071 24.0008C156.539 24.567 156.765 25.2789 156.765 26.1849L156.781 26.2011ZM152.444 26.2011C152.444 26.9291 152.589 27.4954 152.895 27.8837C153.185 28.272 153.605 28.4661 154.185 28.4661C154.765 28.4661 155.185 28.272 155.475 27.8837C155.765 27.4954 155.926 26.9453 155.926 26.2011C155.926 25.4569 155.781 24.923 155.475 24.5347C155.185 24.1464 154.749 23.9522 154.169 23.9522C153.589 23.9522 153.185 24.1464 152.879 24.5185C152.573 24.8906 152.444 25.4569 152.444 26.2011Z" fill="#AF8F32"/>
<path id="Vector_47" d="M164.969 28.3061H164.921C164.518 28.8886 163.921 29.1798 163.131 29.1798C162.341 29.1798 161.809 28.9209 161.374 28.4194C160.955 27.9017 160.761 27.1736 160.761 26.2353C160.761 25.2969 160.971 24.5527 161.374 24.035C161.793 23.5011 162.374 23.2584 163.115 23.2584C163.857 23.2584 164.486 23.5496 164.889 24.0997H164.953L164.921 23.679V20.9448H165.776V29.0827H165.082L164.986 28.3061H164.969ZM163.228 28.4518C163.809 28.4518 164.244 28.29 164.518 27.9664C164.792 27.6428 164.921 27.1251 164.921 26.3971V26.2191C164.921 25.4102 164.792 24.8277 164.518 24.4718C164.244 24.1159 163.825 23.9379 163.228 23.9379C162.632 23.9379 162.341 24.132 162.067 24.5203C161.793 24.9248 161.664 25.4749 161.664 26.2029C161.664 26.931 161.793 27.481 162.067 27.8693C162.341 28.2576 162.712 28.4356 163.228 28.4356V28.4518Z" fill="#AF8F32"/>
<path id="Vector_48" d="M171.13 29.0826L170.953 28.2736H170.904C170.614 28.6296 170.324 28.8723 170.05 29.0017C169.759 29.1311 169.421 29.1958 168.986 29.1958C168.55 29.1958 167.97 29.0502 167.647 28.7428C167.325 28.4516 167.164 28.0471 167.164 27.4971C167.164 26.3322 168.083 25.7336 169.937 25.685L170.904 25.6527V25.2968C170.904 24.8438 170.807 24.5202 170.614 24.3099C170.42 24.0995 170.098 23.9863 169.695 23.9863C169.292 23.9863 168.679 24.1319 168.067 24.4393L167.793 23.776C168.083 23.6142 168.373 23.5009 168.712 23.4038C169.05 23.3068 169.373 23.2744 169.711 23.2744C170.388 23.2744 170.904 23.4362 171.227 23.7436C171.565 24.051 171.726 24.5202 171.726 25.1997V29.0988H171.13V29.0826ZM169.179 28.4678C169.727 28.4678 170.13 28.3222 170.453 28.0148C170.775 27.7074 170.92 27.3029 170.92 26.769V26.2513L170.066 26.2837C169.389 26.316 168.889 26.4131 168.566 26.6072C168.26 26.8014 168.099 27.0926 168.099 27.4971C168.099 27.9015 168.196 28.0633 168.389 28.2089C168.583 28.3707 168.84 28.4516 169.179 28.4516V28.4678Z" fill="#AF8F32"/>
<path id="Vector_49" d="M175.402 28.4671C175.563 28.4671 175.708 28.4671 175.853 28.4347C175.998 28.4347 176.111 28.3862 176.192 28.37V29.0334C176.095 29.0819 175.95 29.1143 175.773 29.1466C175.595 29.179 175.418 29.1951 175.273 29.1951C174.177 29.1951 173.612 28.6127 173.612 27.4317V24.0179H172.806V23.5973L173.612 23.2252L173.983 21.9956H174.483V23.3223H176.144V23.9856H174.483V27.3508C174.483 27.7067 174.564 27.9494 174.725 28.1435C174.902 28.3377 175.128 28.4347 175.402 28.4347V28.4671Z" fill="#AF8F32"/>
<path id="Vector_50" d="M179.739 29.1958C178.9 29.1958 178.223 28.937 177.74 28.4354C177.24 27.9177 177.014 27.2058 177.014 26.2837C177.014 25.3615 177.24 24.6172 177.691 24.0834C178.143 23.5333 178.755 23.2744 179.513 23.2744C180.271 23.2744 180.803 23.5171 181.222 23.9701C181.641 24.4555 181.835 25.0703 181.835 25.8307V26.3807H177.901C177.901 27.0441 178.094 27.5618 178.417 27.9177C178.739 28.2736 179.191 28.4516 179.771 28.4516C180.351 28.4516 180.996 28.3222 181.593 28.0633V28.8237C181.287 28.9532 181.012 29.0502 180.722 29.1149C180.432 29.1797 180.126 29.212 179.739 29.212V29.1958ZM179.497 23.9701C179.029 23.9701 178.675 24.1157 178.401 24.4231C178.127 24.7305 177.965 25.135 177.917 25.6689H180.9C180.9 25.1188 180.771 24.6981 180.529 24.4069C180.271 24.1157 179.932 23.9701 179.481 23.9701H179.497Z" fill="#AF8F32"/>
</g>
</g>
</g>
</g>
<defs>
<linearGradient id="paint0_linear_586_9668" x1="108.055" y1="-9.47906" x2="106.647" y2="34.8987" gradientUnits="userSpaceOnUse">
<stop stop-color="#F4EBBB"/>
<stop offset="0.1" stop-color="#EFE5B2"/>
<stop offset="0.3" stop-color="#E4D69C"/>
<stop offset="0.5" stop-color="#D2BE78"/>
<stop offset="0.7" stop-color="#B99D46"/>
<stop offset="1" stop-color="#A17C15"/>
</linearGradient>
<linearGradient id="paint1_linear_586_9668" x1="130.432" y1="-8.76716" x2="129.024" y2="35.6106" gradientUnits="userSpaceOnUse">
<stop stop-color="#F4EBBB"/>
<stop offset="0.1" stop-color="#EFE5B2"/>
<stop offset="0.3" stop-color="#E4D69C"/>
<stop offset="0.5" stop-color="#D2BE78"/>
<stop offset="0.7" stop-color="#B99D46"/>
<stop offset="1" stop-color="#A17C15"/>
</linearGradient>
</defs>
</svg>
